<svg width="277" height="257" viewBox="0 0 277 257" fill="none" xmlns="http://www.w3.org/2000/svg">
<path d="M277 121.124C277 190.592 216.068 257 146.647 257C77.2263 257 6.10352e-05 227.86 6.10352e-05 158.393C6.10352e-05 88.925 48.5176 0 117.938 0C187.359 0 277 51.6561 277 121.124Z" fill="#B97E48"/>
<path d="M38.0001 28.6556C38.0001 31.8992 35.3604 35 32.353 35C29.3456 35 26.0001 33.6394 26.0001 30.3958C26.0001 27.1521 28.1019 23 31.1093 23C34.1167 23 38.0001 25.412 38.0001 28.6556Z" fill="#B97E48"/>
<path d="M267 14.7251C267 22.0232 261.061 29 254.294 29C247.527 29 240 25.9387 240 18.6405C240 11.3423 244.729 2 251.496 2C258.262 2 267 7.42691 267 14.7251Z" fill="#B97E48"/>
<path d="M40.0001 12.3565C40.0001 13.708 38.6802 15 37.1765 15C35.6728 15 34.0001 14.4331 34.0001 13.0816C34.0001 11.7301 35.051 10 36.5547 10C38.0584 10 40.0001 11.005 40.0001 12.3565Z" fill="#B97E48"/>
<path d="M232 18.6556C232 21.8992 230.02 25 227.765 25C225.509 25 223 23.6394 223 20.3958C223 17.1521 224.576 13 226.832 13C229.088 13 232 15.412 232 18.6556Z" fill="#B97E48"/>
<path d="M249.175 224.619C247.097 227.109 243.59 228.221 241.858 226.776C240.127 225.331 239.072 222.678 241.151 220.188C243.229 217.698 247.1 215.52 248.832 216.966C250.564 218.411 251.254 222.129 249.175 224.619Z" fill="#B97E48"/>
</svg>
