<svg width="296" height="272" viewBox="0 0 296 272" fill="none" xmlns="http://www.w3.org/2000/svg">
<path d="M47 33.5C122 54.7624 227.299 7.59527 260 64C292.701 120.405 275.307 184.068 227.443 230.222C179.578 276.376 50.3852 292.606 27.6964 233.067C5.00772 173.529 -28 12.2376 47 33.5Z" fill="#ECB685"/>
<path d="M30.7616 5.61415C34.0258 10.9649 33.8729 18.8816 28.6929 21.6283C23.5129 24.375 17.019 23.5385 13.0766 19.3239C9.13418 15.1093 8.19385 3.89714 13.6147 2.02221C19.0356 0.14728 27.4974 0.263364 30.7616 5.61415Z" fill="#ECB685"/>
<path d="M95.6517 18.1309C98.4789 22.2931 92.6917 27.3413 80.4243 27.9506C68.157 28.5598 55.7412 26.5761 50.7701 22.9922C45.799 19.4083 51.6802 12.0009 63.826 12.0049C75.9717 12.0089 92.8244 13.9686 95.6517 18.1309Z" fill="#ECB685"/>
<path d="M295.748 114.575C296.762 117.685 294.684 121.459 290.28 121.916C285.877 122.372 281.42 120.892 279.636 118.214C277.852 115.536 279.964 110 284.324 110.002C288.684 110.003 294.733 111.465 295.748 114.575Z" fill="#ECB685"/>
<path d="M287.056 132.102C286.013 133.362 283.864 133.493 282.494 131.755C281.124 130.016 280.558 127.738 281.212 126.269C281.867 124.799 284.77 124.212 285.935 126.054C287.099 127.896 288.098 130.843 287.056 132.102Z" fill="#ECB685"/>
</svg>
