<svg width="317" height="276" viewBox="0 0 317 276" fill="none" xmlns="http://www.w3.org/2000/svg">
<path d="M117.638 263.811C57.477 229.077 11.7896 146.799 46.5 86.6785C81.2104 26.5583 183.339 -4.55534 243.5 30.1785C303.661 64.9124 336.775 126.501 302.065 186.622C267.355 246.742 177.799 298.545 117.638 263.811Z" fill="#ECB685"/>
<path d="M104.287 9.80939C108.138 16.0089 106.774 25.0692 101.026 28.6396C95.2775 32.21 87.2679 33.5814 83.4171 27.3818C79.5662 21.1823 78.654 10.751 84.4021 7.18063C90.1501 3.61023 100.436 3.60986 104.287 9.80939Z" fill="#ECB685"/>
<path d="M78.3546 0.952056C79.0501 2.07167 78.8038 3.70792 77.7657 4.35272C76.7276 4.99752 75.2811 5.24518 74.5857 4.12557C73.8902 3.00596 73.7255 1.12211 74.7636 0.477311C75.8016 -0.167488 77.6592 -0.167555 78.3546 0.952056Z" fill="#ECB685"/>
<path d="M215.73 4.91176C217.123 7.15524 216.63 10.434 214.55 11.726C212.469 13.0181 209.571 13.5143 208.177 11.2709C206.784 9.02737 206.454 5.25252 208.534 3.96047C210.614 2.66842 214.336 2.66828 215.73 4.91176Z" fill="#ECB685"/>
<path d="M12.9777 188.667C15.7091 193.065 15.8533 198.801 13.0427 200.547C10.232 202.293 5.95951 202.39 3.22803 197.993C0.496545 193.595 -1.03564 186.746 1.77503 185C4.58571 183.254 10.2462 184.27 12.9777 188.667Z" fill="#ECB685"/>
<path d="M26.6799 232.522C30.0723 237.984 28.0875 246.452 22.1316 250.151C16.1757 253.851 8.12709 255.675 4.73478 250.214C1.34247 244.753 1.16255 235.176 7.11848 231.477C13.0744 227.777 23.2876 227.061 26.6799 232.522Z" fill="#ECB685"/>
<path d="M76.6293 31.616C78.3408 34.3713 78.2952 38.0499 76.3792 39.24C74.4632 40.4302 71.6138 40.5983 69.9023 37.843C68.1909 35.0876 67.3391 30.7288 69.2551 29.5386C71.1711 28.3485 74.9178 28.8606 76.6293 31.616Z" fill="#ECB685"/>
</svg>
