<svg width="293" height="282" viewBox="0 0 293 282" fill="none" xmlns="http://www.w3.org/2000/svg">
<path d="M71.2172 29.7849C134.717 -11.7151 230.541 -12.8438 265.717 48.7849C300.893 110.414 293.217 189.285 243.717 238.562C194.217 287.838 58.9377 303.432 34.2172 238.562C9.49675 173.691 7.7172 71.2849 71.2172 29.7849Z" fill="#ECB685"/>
<path d="M20.4595 221.578C23.1591 225.924 22.9346 231.821 19.7386 233.806C16.5426 235.791 11.8549 236.177 9.15533 231.831C6.45573 227.485 5.23364 220.534 8.42961 218.549C11.6256 216.563 17.7599 217.232 20.4595 221.578Z" fill="#ECB685"/>
<path d="M18 93.5C16.9375 98.5048 10.5167 99.1306 6.83637 98.3493C3.15606 97.568 -0.492366 94.5994 0.57015 89.5947C1.63267 84.5899 5.56492 78.7294 9.24523 79.5107C12.9255 80.2921 19.0625 88.4952 18 93.5Z" fill="#ECB685"/>
<path d="M22.8892 80.3929C22.4255 82.5773 20.0971 82.9511 18.7807 82.6717C17.4644 82.3922 16.1945 81.165 16.6583 78.9806C17.122 76.7962 18.6357 74.1953 19.952 74.4748C21.2684 74.7542 23.353 78.2085 22.8892 80.3929Z" fill="#ECB685"/>
<path d="M292.065 221.835C290.916 227.246 285.149 228.172 281.888 227.48C278.627 226.788 275.482 223.748 276.631 218.337C277.779 212.926 281.529 206.484 284.789 207.176C288.05 207.868 293.214 216.425 292.065 221.835Z" fill="#ECB685"/>
</svg>
