<svg width="327" height="261" viewBox="0 0 327 261" fill="none" xmlns="http://www.w3.org/2000/svg">
<path d="M127.638 248.811C67.477 214.077 21.7896 131.799 56.5 71.6785C91.2104 11.5583 193.339 -19.5553 253.5 15.1785C313.661 49.9124 346.775 111.501 312.065 171.622C277.355 231.742 187.799 283.545 127.638 248.811Z" fill="#ECB685"/>
<path d="M25.6195 122.774C22.0949 120.739 19.4094 115.934 21.4303 112.434C23.4513 108.933 29.4205 107.135 32.9451 109.17C36.4698 111.205 38.4166 114.802 36.3956 118.302C34.3747 121.803 29.1442 124.809 25.6195 122.774Z" fill="#ECB685"/>
<path d="M8.10291 149.101C2.66782 145.963 -1.47328 138.553 1.64305 133.156C4.75939 127.758 13.9641 124.985 19.3992 128.123C24.8342 131.261 27.8362 136.807 24.7199 142.205C21.6035 147.602 13.538 152.239 8.10291 149.101Z" fill="#ECB685"/>
<path d="M35.7662 142.786C34.024 141.78 32.6966 139.405 33.6956 137.674C34.6945 135.944 37.645 135.055 39.3872 136.061C41.1294 137.067 42.0916 138.845 41.0927 140.575C40.0938 142.305 37.5084 143.791 35.7662 142.786Z" fill="#ECB685"/>
<path d="M100.521 256.342C97.0417 254.333 94.4663 249.46 96.569 245.818C98.6716 242.177 104.685 240.192 108.164 242.2C111.643 244.209 113.507 247.858 111.404 251.5C109.302 255.142 104 258.351 100.521 256.342Z" fill="#ECB685"/>
<path d="M312.521 222.258C309.042 220.25 306.466 215.376 308.569 211.734C310.672 208.093 316.685 206.108 320.164 208.116C323.643 210.125 325.507 213.774 323.404 217.416C321.302 221.058 316 224.267 312.521 222.258Z" fill="#ECB685"/>
<path d="M294.233 236.276C292.275 235.145 290.825 232.403 292.009 230.353C293.192 228.303 296.576 227.186 298.534 228.317C300.492 229.447 301.541 231.501 300.358 233.55C299.174 235.6 296.191 237.406 294.233 236.276Z" fill="#ECB685"/>
</svg>
