<svg width="30" height="30" viewBox="0 0 30 30" fill="none" xmlns="http://www.w3.org/2000/svg">
<path d="M15 0C6.717 0 0 6.717 0 15C0 23.283 6.717 30 15 30C23.283 30 30 23.283 30 15C30 6.717 23.286 0 15 0ZM7.401 15.504L7.464 15.402L11.367 9.297C11.424 9.21 11.559 9.219 11.601 9.315C12.252 10.776 12.816 12.594 12.552 13.725C12.441 14.19 12.132 14.82 11.784 15.402C11.739 15.486 11.691 15.57 11.637 15.651C11.613 15.687 11.571 15.708 11.526 15.708H7.515C7.407 15.708 7.344 15.591 7.401 15.504V15.504ZM24.792 17.604C24.792 17.661 24.759 17.709 24.711 17.73C24.408 17.859 23.373 18.336 22.944 18.933C21.846 20.46 21.009 22.644 19.134 22.644H11.316C8.544 22.644 6.3 20.391 6.3 17.61V17.52C6.3 17.448 6.36 17.388 6.435 17.388H10.791C10.878 17.388 10.941 17.466 10.935 17.553C10.902 17.835 10.956 18.126 11.091 18.39C11.349 18.915 11.886 19.242 12.465 19.242H14.622V17.559H12.489C12.381 17.559 12.315 17.433 12.378 17.343C12.402 17.307 12.426 17.271 12.456 17.229C12.657 16.941 12.945 16.497 13.233 15.99C13.428 15.648 13.617 15.282 13.77 14.916C13.8 14.85 13.824 14.781 13.851 14.715C13.893 14.598 13.935 14.487 13.965 14.379C13.995 14.286 14.022 14.19 14.046 14.1C14.118 13.788 14.148 13.458 14.148 13.116C14.148 12.981 14.142 12.84 14.13 12.708C14.124 12.561 14.106 12.414 14.088 12.267C14.076 12.138 14.052 12.009 14.028 11.877C13.995 11.682 13.953 11.487 13.905 11.292L13.887 11.217C13.851 11.082 13.818 10.956 13.776 10.821C13.653 10.401 13.515 9.99 13.365 9.606C13.311 9.453 13.251 9.306 13.188 9.162C13.098 8.94 13.005 8.739 12.921 8.55C12.876 8.463 12.84 8.385 12.804 8.304C12.762 8.214 12.72 8.124 12.675 8.037C12.645 7.971 12.609 7.908 12.585 7.848L12.321 7.362C12.285 7.296 12.345 7.215 12.417 7.236L14.067 7.683H14.073H14.079L14.295 7.746L14.535 7.812L14.622 7.836V6.858C14.622 6.384 15 6 15.471 6C15.705 6 15.918 6.096 16.068 6.252C16.221 6.408 16.317 6.621 16.317 6.858V8.313L16.494 8.361C16.506 8.367 16.521 8.373 16.533 8.382C16.575 8.412 16.638 8.46 16.716 8.52C16.779 8.568 16.845 8.628 16.923 8.691C17.082 8.82 17.274 8.985 17.481 9.174C17.535 9.222 17.589 9.27 17.64 9.321C17.907 9.57 18.207 9.861 18.495 10.185C18.576 10.278 18.654 10.368 18.735 10.467C18.813 10.566 18.9 10.662 18.972 10.758C19.071 10.887 19.173 11.022 19.266 11.163C19.308 11.229 19.359 11.298 19.398 11.364C19.518 11.541 19.62 11.724 19.719 11.907C19.761 11.991 19.803 12.084 19.839 12.174C19.95 12.42 20.037 12.669 20.091 12.921C20.109 12.975 20.121 13.032 20.127 13.086V13.098C20.145 13.17 20.151 13.248 20.157 13.329C20.181 13.584 20.169 13.842 20.115 14.1C20.091 14.208 20.061 14.31 20.025 14.421C19.986 14.526 19.95 14.634 19.902 14.739C19.809 14.952 19.701 15.168 19.572 15.366C19.53 15.441 19.479 15.519 19.431 15.594C19.377 15.672 19.32 15.747 19.272 15.819C19.203 15.912 19.131 16.008 19.056 16.095C18.99 16.185 18.924 16.275 18.849 16.356C18.747 16.479 18.648 16.593 18.543 16.704C18.483 16.776 18.417 16.851 18.348 16.917C18.282 16.992 18.213 17.058 18.153 17.118C18.048 17.223 17.964 17.301 17.892 17.37L17.721 17.523C17.697 17.547 17.664 17.559 17.631 17.559H16.317V19.242H17.97C18.339 19.242 18.69 19.113 18.975 18.87C19.071 18.786 19.494 18.42 19.995 17.868C20.013 17.847 20.034 17.835 20.058 17.829L24.621 16.509C24.708 16.485 24.792 16.548 24.792 16.638V17.604Z" fill="white"/>
</svg>
