<svg width="30" height="30" viewBox="0 0 30 30" fill="none" xmlns="http://www.w3.org/2000/svg">
<path d="M6.23479 14.2836C6.23476 14.116 6.26782 13.9501 6.33207 13.7954C6.39632 13.6407 6.4905 13.5002 6.60919 13.382C6.72788 13.2638 6.86874 13.1702 7.02369 13.1067C7.17864 13.0431 7.34462 13.0108 7.51209 13.0115L9.62974 13.0185C9.96739 13.0185 10.2912 13.1527 10.53 13.3915C10.7687 13.6303 10.9029 13.9543 10.9029 14.2921V22.3025C11.1414 22.2318 11.4474 22.1564 11.7825 22.0777C12.0152 22.0229 12.2226 21.8911 12.3711 21.7037C12.5195 21.5162 12.6003 21.2841 12.6004 21.0449V11.1087C12.6004 10.7709 12.7345 10.4469 12.9732 10.208C13.212 9.96911 13.5358 9.83487 13.8735 9.83482H15.9954C16.3331 9.8349 16.6569 9.96915 16.8957 10.208C17.1344 10.4469 17.2685 10.7709 17.2685 11.1087V20.3309C17.2685 20.3309 17.7996 20.1157 18.3172 19.8972C18.5094 19.8159 18.6734 19.6797 18.7888 19.5057C18.9042 19.3318 18.9658 19.1276 18.966 18.9189V7.92421C18.966 7.75698 18.9989 7.59138 19.0628 7.43687C19.1268 7.28236 19.2206 7.14196 19.3388 7.0237C19.457 6.90544 19.5973 6.81163 19.7517 6.74762C19.9062 6.68361 20.0717 6.65066 20.2389 6.65064H22.3608C22.6985 6.65064 23.0223 6.78482 23.2611 7.02366C23.4999 7.26249 23.634 7.58643 23.634 7.92421V16.9777C25.4736 15.6441 27.338 14.0399 28.8175 12.1111C29.0322 11.8312 29.1742 11.5024 29.2309 11.1541C29.2877 10.8059 29.2574 10.449 29.1427 10.1153C28.1417 7.19689 26.2639 4.65898 23.7663 2.84864C21.2686 1.03829 18.2729 0.043874 15.1888 0.00135987C6.87232 -0.110398 -0.000806027 6.68078 1.09258e-05 15.0012C-0.00815483 17.6341 0.678772 20.2224 1.99133 22.5045C2.17234 22.8167 2.43864 23.0706 2.75895 23.2366C3.07925 23.4026 3.44026 23.4737 3.79955 23.4416C4.20098 23.4062 4.70076 23.3563 5.29488 23.2865C5.55348 23.2571 5.79223 23.1335 5.96564 22.9394C6.13906 22.7452 6.23504 22.4941 6.2353 22.2337V14.2836" fill="white"/>
<path d="M6.18858 27.1304C8.42518 28.7581 11.0683 29.7351 13.8255 29.9533C16.5827 30.1715 19.3465 29.6225 21.8112 28.3669C24.2758 27.1114 26.3452 25.1983 27.7904 22.8392C29.2356 20.4802 30.0003 17.7672 29.9999 15.0004C29.9999 14.655 29.9838 14.3135 29.9608 13.9738C24.4829 22.1463 14.3686 25.9674 6.18848 27.1307" fill="white"/>
</svg>
