<svg width="30" height="24" viewBox="0 0 30 24" fill="none" xmlns="http://www.w3.org/2000/svg">
<path d="M25.3962 2.47405C23.4841 1.59158 21.4337 0.941413 19.2898 0.569036C19.2508 0.56185 19.2118 0.57981 19.1917 0.615731C18.928 1.08749 18.6359 1.70293 18.4313 2.18666C16.1255 1.83944 13.8315 1.83944 11.5729 2.18666C11.3683 1.69218 11.0656 1.08749 10.8007 0.615731C10.7806 0.581008 10.7416 0.563048 10.7025 0.569036C8.55987 0.940223 6.50944 1.59039 4.59616 2.47405C4.5796 2.48123 4.5654 2.49322 4.55598 2.50877C0.666738 8.35312 -0.398687 14.0538 0.123975 19.6838C0.12634 19.7114 0.141712 19.7377 0.162997 19.7545C2.72901 21.6499 5.21462 22.8006 7.65408 23.5633C7.69313 23.5753 7.73449 23.5609 7.75934 23.5286C8.33639 22.7359 8.85078 21.9002 9.29183 21.0213C9.31785 20.9698 9.29301 20.9087 9.23981 20.8884C8.4239 20.5771 7.64698 20.1975 6.89965 19.7665C6.84054 19.7317 6.8358 19.6467 6.89018 19.606C7.04745 19.4874 7.20476 19.3641 7.35493 19.2396C7.3821 19.2168 7.41996 19.212 7.4519 19.2264C12.3616 21.4811 17.6769 21.4811 22.5286 19.2264C22.5606 19.2109 22.5984 19.2157 22.6268 19.2384C22.777 19.3629 22.9343 19.4874 23.0927 19.606C23.1471 19.6467 23.1436 19.7317 23.0844 19.7665C22.3371 20.2059 21.5602 20.5771 20.7431 20.8872C20.6899 20.9075 20.6662 20.9698 20.6923 21.0213C21.1428 21.8989 21.6572 22.7347 22.2236 23.5274C22.2472 23.5609 22.2898 23.5753 22.3288 23.5633C24.7801 22.8006 27.2657 21.6499 29.8317 19.7545C29.8542 19.7377 29.8684 19.7126 29.8708 19.685C30.4963 13.1761 28.8231 7.52216 25.4352 2.50996C25.4269 2.49322 25.4128 2.48123 25.3962 2.47405V2.47405ZM10.025 16.2557C8.54686 16.2557 7.3289 14.8908 7.3289 13.2144C7.3289 11.5381 8.52324 10.1731 10.025 10.1731C11.5386 10.1731 12.7447 11.5501 12.7211 13.2144C12.7211 14.8908 11.5267 16.2557 10.025 16.2557ZM19.9934 16.2557C18.5153 16.2557 17.2973 14.8908 17.2973 13.2144C17.2973 11.5381 18.4916 10.1731 19.9934 10.1731C21.507 10.1731 22.7131 11.5501 22.6895 13.2144C22.6895 14.8908 21.507 16.2557 19.9934 16.2557Z" fill="white"/>
</svg>
