<svg width="30" height="26" viewBox="0 0 30 26" fill="none" xmlns="http://www.w3.org/2000/svg">
<path d="M26.9287 7.19659C26.947 7.46782 26.947 7.73905 26.947 8.01278C26.947 16.3535 20.7556 25.9729 9.43449 25.9729V25.9679C6.09019 25.9729 2.81536 24.9905 0 23.1381C0.486289 23.1981 0.975015 23.2281 1.46496 23.2293C4.23644 23.2318 6.9287 22.2781 9.10908 20.522C6.47532 20.4707 4.16575 18.7096 3.35893 16.1385C4.28154 16.321 5.23218 16.2835 6.13772 16.0298C3.2663 15.4348 1.20049 12.8475 1.20049 9.84267C1.20049 9.81517 1.20049 9.78892 1.20049 9.76267C2.05606 10.2514 3.01402 10.5226 3.99391 10.5526C1.28946 8.69899 0.45582 5.00922 2.08897 2.12441C5.21389 6.06791 9.8245 8.46526 14.7739 8.71899C14.2779 6.52663 14.9555 4.22927 16.5545 2.68812C19.0335 0.298271 22.9324 0.420763 25.2626 2.96185C26.6411 2.68312 27.9622 2.1644 29.1712 1.42945C28.7118 2.89061 27.7502 4.13178 26.4656 4.92048C27.6856 4.77299 28.8775 4.43801 30 3.92679C29.1737 5.19671 28.1328 6.30289 26.9287 7.19659V7.19659Z" fill="white"/>
</svg>
