<svg width="1440" height="1749" viewBox="0 0 1440 1749" fill="none" xmlns="http://www.w3.org/2000/svg">
<rect width="1440" height="1749" fill="#FFCB9B"/>
<path d="M243.5 160.5C78.3 187.7 -13.6667 127.833 -39 94.5L-60.5 0H1483C1530.67 22.5 1606.3 82.3 1527.5 141.5C1429 215.5 1087 194 866 141.5C645 89 450 126.5 243.5 160.5Z" fill="#ECB685"/>
<path d="M1191.83 963.605C1177.11 955.104 1165.92 934.965 1174.42 920.25C1182.92 905.535 1207.91 897.92 1222.64 906.422C1237.36 914.923 1245.47 929.997 1236.97 944.712C1228.48 959.427 1206.56 972.107 1191.83 963.605Z" fill="#ECB685"/>
<path d="M48.9475 658.842C55.7998 613.582 95.3019 565.775 140.531 572.623C185.76 579.47 229.396 634.654 222.544 679.914C215.691 725.174 185.862 760.294 140.632 753.446C95.4031 746.599 42.0953 704.101 48.9475 658.842Z" fill="#ECB685"/>
<path d="M109.349 293.917C154.818 336.885 241.317 419.834 137.929 430.228C34.5401 440.622 -4.13649 515.341 -49.605 472.374C-95.0736 429.407 -111.251 368.548 -68.3125 323.11C-25.3744 277.672 63.8806 250.95 109.349 293.917Z" fill="#ECB685"/>
<path d="M1225.29 489.734C1192.77 470.963 1168.08 426.495 1186.84 394.004C1205.6 361.512 1260.8 344.697 1293.31 363.468C1325.82 382.24 1343.72 415.526 1324.96 448.018C1306.2 480.509 1257.8 508.506 1225.29 489.734Z" fill="#ECB685"/>
<path d="M1335.37 645.824C1324.56 589.598 1351.18 516.743 1407.37 505.941C1463.56 495.139 1538.04 541.996 1548.85 598.222C1559.66 654.448 1539.15 708.307 1482.96 719.109C1426.77 729.911 1346.18 702.05 1335.37 645.824Z" fill="#ECB685"/>
</svg>
