<svg width="1440" height="241" viewBox="0 0 1440 241" fill="none" xmlns="http://www.w3.org/2000/svg">
<path d="M-339.012 58.5186C-438.607 17.9937 -536.836 31.7432 -573.501 43.6836L-603 217L1569.4 184.435C1594.23 128.593 1325.41 -16.7418 1049.93 21.2503C774.438 59.2423 802.937 105.556 588.947 58.5186C374.956 11.4808 259.461 23.4211 94.4688 65.0315C-70.5239 106.642 -214.517 109.175 -339.012 58.5186Z" fill="white"/>
<path d="M162 52.4998C62.4 -3.50022 -35.8333 15.4998 -72.5 31.9998L-102 271.5L1607 226.5C1631.83 149.333 1655.4 -3.8001 1551 0.999897C1420.5 6.9999 1304 117.5 1090 52.4998C876 -12.5002 760.5 3.99979 595.5 61.4998C430.5 119 286.5 122.5 162 52.4998Z" fill="#D6FF8F"/>
</svg>
