<svg width="45" height="46" viewBox="0 0 45 46" fill="none" xmlns="http://www.w3.org/2000/svg">
<circle cx="22.5" cy="23.5" r="22.5" fill="#D8BE41"/>
<path d="M16.7445 27.904C18.6165 27.904 20.4405 27.904 25.1445 27.904C27.6405 28.048 31.3845 28.576 32.2485 25.264C32.7285 23.488 31.6725 21.52 29.7045 20.848C28.8885 20.512 27.9285 20.512 26.9685 20.464C25.5765 20.416 24.1845 20.512 22.7925 20.512C20.6325 20.512 18.4245 20.512 16.1685 20.56C14.1525 20.608 12.5685 22.096 12.4245 23.824C12.2325 25.792 13.4805 27.472 15.5445 27.856C15.9285 27.904 16.2645 27.904 16.7445 27.904Z" fill="white"/>
</svg>
