<svg width="45" height="46" viewBox="0 0 45 46" fill="none" xmlns="http://www.w3.org/2000/svg">
<circle cx="22.5" cy="23.5" r="22.5" fill="#D8BE41"/>
<path d="M26.1166 28.672C26.5006 28.672 27.0766 28.672 27.5566 28.672C28.0846 28.672 28.6606 28.72 29.1886 28.672C30.7726 28.624 32.1166 27.568 32.5486 25.984C32.9806 24.592 32.4526 23.008 31.0606 22.144C30.3886 21.712 29.5726 21.52 28.8526 21.28C27.9886 21.088 27.0766 21.088 26.2126 21.04C25.7806 18.304 24.5326 16.96 22.3246 16.96C20.0206 16.912 18.7246 18.16 18.1966 21.04C17.7166 21.04 17.1406 21.04 16.6606 21.04C14.6446 21.184 13.0126 22.528 12.8206 24.304C12.5806 26.416 14.2126 28.336 16.4686 28.48C16.9966 28.48 17.5246 28.48 18.0526 28.48C18.1966 31.264 19.4446 32.704 21.7006 32.896C23.9566 33.088 25.4926 31.696 26.1166 28.672Z" fill="white"/>
</svg>
