<svg width="47" height="50" viewBox="0 0 47 50" fill="none" xmlns="http://www.w3.org/2000/svg">
<path d="M33.2885 38.6023C33.2102 38.0032 33.7761 37.5913 34.3424 37.3805C40.2013 35.1997 44.099 30.9381 44.099 24.332C44.099 14.141 34.8232 2.63516 23.3809 2.63516C11.9386 2.63516 2.66281 14.141 2.66281 24.332C2.66281 30.6138 6.18726 34.7757 11.5711 37.0443C12.1903 37.3052 12.9225 37.6856 12.9738 38.3556C13.0311 39.1054 12.3463 39.5986 11.8896 40.196C11.4281 40.7997 11.1538 41.5552 11.1538 42.3751C11.1538 44.3533 12.7505 45.9568 14.7201 45.9568C15.3039 45.9568 15.855 45.8159 16.3414 45.5661C16.9112 45.2735 17.3195 44.7928 17.9467 44.6633C18.8838 44.4699 19.4647 45.6375 20.1927 46.2584C20.9623 46.9147 22.0304 47.3213 23.2111 47.3213C24.9514 47.3213 26.447 46.438 27.1026 45.1738C27.1151 45.1497 27.1306 45.1268 27.1493 45.1071C27.5571 44.6766 27.9964 44.5831 28.4098 44.6511C29.0418 44.7552 29.5111 45.2736 30.0809 45.5662C30.5673 45.816 31.1183 45.9568 31.7021 45.9568C33.6717 45.9568 35.2684 44.3533 35.2684 42.3751C35.2684 41.3156 34.8103 40.3636 34.0823 39.7078C33.7335 39.3937 33.3494 39.0677 33.2885 38.6023Z" fill="white" stroke="#140095" stroke-width="5"/>
<path d="M22.7717 23.5564C22.7717 26.5852 19.0976 32.4936 16.0687 32.4936C13.0399 32.4936 11.1938 30.2692 11.1938 24.572C11.1938 20.9158 15.0711 16.4472 18.0999 16.4472C21.1288 16.4472 22.7717 18.6815 22.7717 23.5564Z" fill="#140095"/>
<path d="M23.9903 23.6464C23.9903 26.7136 27.6644 32.6967 30.6932 32.6967C33.722 32.6967 35.5681 30.4441 35.5681 24.6748C35.5681 20.9724 31.6908 16.4472 28.662 16.4472C25.6332 16.4472 23.9903 18.7098 23.9903 23.6464Z" fill="#140095"/>
<path d="M27.032 33.7704C27.0258 33.6838 27.0371 33.5961 27.0371 33.5092C27.0371 32.4996 24.1874 29.8531 23.1778 29.8531C22.1682 29.8531 19.3186 32.4996 19.3186 33.5092C19.3186 33.5961 19.3298 33.6838 19.3237 33.7704C19.3203 33.8183 19.3186 33.8667 19.3186 33.9155C19.3186 35.0373 20.2279 35.9467 21.3497 35.9467C21.4223 35.9467 21.4939 35.9429 21.5645 35.9354C22.3945 35.8482 23.9611 35.8482 24.7912 35.9354C24.8617 35.9429 24.9334 35.9467 25.0059 35.9467C26.1277 35.9467 27.0371 35.0373 27.0371 33.9155C27.0371 33.8667 27.0354 33.8183 27.032 33.7704Z" fill="#140095"/>
</svg>
